<svg id="Layer_1" data-name="Layer 1" xmlns="http://www.w3.org/2000/svg" viewBox="0 0 1080 434.04"><defs><style>.cls-1{fill:#020e50;}</style></defs><path class="cls-1" d="M406,139h12.32v78.45H406Zm12.32,0h11.31v12.33H418.32Zm11.31,0H442v42.2H429.63Zm0,42.2H484.3V193.5H429.63ZM442,139a55.28,55.28,0,0,1,18.85,2.9A33.82,33.82,0,0,1,474,150.29a34.71,34.71,0,0,1,7.76,13.27,56.59,56.59,0,0,1,2.54,17.62H472a53.76,53.76,0,0,0-1.74-15.08A19,19,0,0,0,464.8,157a20.4,20.4,0,0,0-9.36-4.5A64.21,64.21,0,0,0,442,151.31Z"/><path class="cls-1" d="M497.06,181.18a55,55,0,0,1,2.9-18.85,33.57,33.57,0,0,1,8.41-13.2,34.67,34.67,0,0,1,13.34-7.76,57.29,57.29,0,0,1,17.69-2.53v12.32a54.54,54.54,0,0,0-15.15,1.74,19,19,0,0,0-9.14,5.44,20.45,20.45,0,0,0-4.49,9.35,63.59,63.59,0,0,0-1.24,13.49Zm0,12.32V181.18H539.4V193.5Zm54.66-7.68a128.12,128.12,0,0,1-1,16.82,29.42,29.42,0,0,1-4.64,12.83,22.84,22.84,0,0,1-10.59,8.12q-7,2.82-18.85,2.83,9.29-2.91,13.92-7a23.2,23.2,0,0,0,6.6-9.14,32.9,32.9,0,0,0,2.1-11.24q.15-6.17.15-13.26Zm-12.32,0v-47h12.32v47Zm12.32,7.68V181.18H572V193.5Z"/><path class="cls-1" d="M572,181.18H715.86V193.5H572Zm67.28-67.86h17.11L619.58,151.6H602.47Zm-8,26h27.84V151.6H619.58Zm27.84,0a55.28,55.28,0,0,1,18.85,2.9,32.83,32.83,0,0,1,21,21.53,56.17,56.17,0,0,1,2.54,17.48H689.18a53.22,53.22,0,0,0-1.74-14.94,19,19,0,0,0-5.44-9.06,19.74,19.74,0,0,0-9.35-4.42,67.47,67.47,0,0,0-13.48-1.16Z"/><path class="cls-1" d="M715.86,181.18h40.75V193.5H715.86Zm39.73-58.87a9.68,9.68,0,0,1-2.54-6.89,8.71,8.71,0,0,1,3-6.6,9.63,9.63,0,0,1,6.88-2.53,8.67,8.67,0,0,1,6.6,3,9.56,9.56,0,0,1,2.54,6.81,8.67,8.67,0,0,1-3,6.53,10,10,0,0,1-6.89,2.61A8.51,8.51,0,0,1,755.59,122.31Zm1,19.14h12.32V193.5H756.61Z"/><path class="cls-1" d="M792.42,193.65H780.09V95.92h12.33Z"/><path class="cls-1" d="M816.49,185.82a126.31,126.31,0,0,1-1,16.82,29.17,29.17,0,0,1-4.64,12.83,22.76,22.76,0,0,1-10.58,8.12q-7,2.82-18.85,2.83,9.29-2.91,13.92-7a23.4,23.4,0,0,0,6.6-9.14,33.39,33.39,0,0,0,2.1-11.24q.13-6.17.14-13.26Zm-12.33,0v-47h12.33v47Zm12.33,7.68V181.18h20.3V193.5Z"/><path class="cls-1" d="M836.79,181.18H925V193.5H836.79Zm19-42.2h12.33v42.2H855.78Zm12.33,0a55.28,55.28,0,0,1,18.85,2.9,33.82,33.82,0,0,1,13.19,8.41,34.71,34.71,0,0,1,7.76,13.27,56.59,56.59,0,0,1,2.54,17.62H898.12a53.76,53.76,0,0,0-1.74-15.08A19,19,0,0,0,891,157a20.4,20.4,0,0,0-9.36-4.5,64.21,64.21,0,0,0-13.48-1.23Z"/><path class="cls-1" d="M1013.83,193.5H925V181.18h88.88ZM989,151.6a67.57,67.57,0,0,0-13.49,1.16,19.74,19.74,0,0,0-9.35,4.42,19,19,0,0,0-5.44,9.06A53.22,53.22,0,0,0,959,181.18H946.7a56.18,56.18,0,0,1,2.53-17.48,32.82,32.82,0,0,1,21-21.53,55.24,55.24,0,0,1,18.85-2.9Zm11.6,0H989V139.27h11.6Z"/><path class="cls-1" d="M421.31,338.89a32.52,32.52,0,0,1-11.72-13.61,47.12,47.12,0,0,1,0-38.45,32.58,32.58,0,0,1,11.72-13.61,33.84,33.84,0,0,1,35.31,0,32.51,32.51,0,0,1,11.72,13.61,47,47,0,0,1,0,38.45,32.45,32.45,0,0,1-11.72,13.61,33.84,33.84,0,0,1-35.31,0Zm29.81-3.46A25.39,25.39,0,0,0,459,323.82a59.79,59.79,0,0,0,0-35.53,25.5,25.5,0,0,0-7.83-11.61,20.05,20.05,0,0,0-24.3,0A25.5,25.5,0,0,0,419,288.29a59.79,59.79,0,0,0,0,35.53,25.39,25.39,0,0,0,7.83,11.61,20,20,0,0,0,24.3,0Z"/><path class="cls-1" d="M556.15,344.18a13.11,13.11,0,0,1-6.11-7.4q-1.77-5-1.78-13.45V281.75l-27,59.95H519.1l-28.08-61v61H486.7V270.41H497l25.92,56.17,25.38-56.17H558v52.92q0,10.05,2.54,15.56t7.72,5.51v2.16Q560.47,346.56,556.15,344.18Z"/><path class="cls-1" d="M618.08,339.37q-4.26-3.39-9.45-12.25l-10.8-18.37h-7.56V341.7h-9.72V283.37c0-3.67-.5-6.38-1.51-8.15s-3-2.64-6-2.64h-2.16v-2.17h28.08a42.47,42.47,0,0,1,18.58,4q8.43,4.05,8.42,15.29,0,8.42-4.91,12.58a28.92,28.92,0,0,1-12.37,5.88L620,327.12q4,6.69,7.19,9.34a13.5,13.5,0,0,0,7.39,3.08v2.16a12.66,12.66,0,0,1-2.8.75,21.43,21.43,0,0,1-3.78.33A15.41,15.41,0,0,1,618.08,339.37Zm-20-34.39a20.12,20.12,0,0,0,7.56-1.62,16.48,16.48,0,0,0,6.75-5.08,13.39,13.39,0,0,0,2.75-8.64,13.25,13.25,0,0,0-2.8-8.64,17.53,17.53,0,0,0-6.75-5.13,19.14,19.14,0,0,0-7.51-1.67,32.39,32.39,0,0,0-7.78,1.08V305Z"/><path class="cls-1" d="M690.28,339.37q-5.07-2.85-8.1-11.17l-2.7-7H649.24L640.6,341.7h-4.86L666,270.41h3.24L693,328.2q2.7,6.26,5.08,8.58a10.92,10.92,0,0,0,6.8,2.76v2.16a16.58,16.58,0,0,1-4.32.54A20.66,20.66,0,0,1,690.28,339.37Zm-13-22.51-13-31.32-13.5,31.32Z"/><path class="cls-1" d="M718.14,285v56.7h-4.32V283.37q0-5.17-2.21-8t-7.51-2.8H703v-2.17h7a19.65,19.65,0,0,1,8.43,1.63,17.9,17.9,0,0,1,6.15,4.86l37.8,47V270.41h4.32v72.37h-2.16Z"/><path class="cls-1" d="M796.5,339a32.2,32.2,0,0,1-11.72-13.23,41.69,41.69,0,0,1-4.1-18.63,43,43,0,0,1,4.48-19.55,36,36,0,0,1,12.2-14.15,29.52,29.52,0,0,1,16.8-5.19,43.41,43.41,0,0,1,15.17,2.44q6.54,2.43,9.67,6.21a11.36,11.36,0,0,1,2.26,6,92.73,92.73,0,0,1,.44,10.21h-2.16q-2.06-10.49-7.56-15.5t-14.58-5q-11.67,0-18.8,8.2t-7.12,26.36A44.74,44.74,0,0,0,794.23,323,26.84,26.84,0,0,0,802.82,335q5.82,4.59,14.58,4.59a24.87,24.87,0,0,0,13.77-3.79,34.57,34.57,0,0,0,10.53-11.34l2.16,1.63q-5,9.72-12.26,13.77a35.51,35.51,0,0,1-17.44,4.05A32.09,32.09,0,0,1,796.5,339Z"/><path class="cls-1" d="M868.53,338.89a32.49,32.49,0,0,1-11.71-13.61,47,47,0,0,1,0-38.45,32.56,32.56,0,0,1,11.71-13.61,33.86,33.86,0,0,1,35.32,0,32.65,32.65,0,0,1,11.72,13.61,47.12,47.12,0,0,1,0,38.45,32.59,32.59,0,0,1-11.72,13.61,33.86,33.86,0,0,1-35.32,0Zm29.81-3.46a25.39,25.39,0,0,0,7.83-11.61,59.79,59.79,0,0,0,0-35.53,25.5,25.5,0,0,0-7.83-11.61,20.05,20.05,0,0,0-24.3,0,25.5,25.5,0,0,0-7.83,11.61,59.79,59.79,0,0,0,0,35.53A25.39,25.39,0,0,0,874,335.43a20,20,0,0,0,24.3,0Z"/><path class="cls-1" d="M1003.37,344.18a13.1,13.1,0,0,1-6.1-7.4q-1.78-5-1.78-13.45V281.75l-27,59.95h-2.16l-28.08-61v61h-4.32V270.41h10.26l25.92,56.17,25.38-56.17h9.72v52.92q0,10.05,2.53,15.56t7.73,5.51v2.16Q1007.69,346.56,1003.37,344.18Z"/><path class="cls-1" d="M361.71,132.84,211.61,73,63.8,131.8l.32.14h-.06l.6,65.31,75.81,29.81-76,33.11-.14-.05V319.8l148,58.32,149.44-58.69V257.64l-75.28-33.21,75.28-30.64ZM141,160.26l70.46-29.41,76.3,32.06-70.82,30.85Zm132.41,64-62,25.23-57.63-22.65,63.1-27.49ZM214,126.4l.19-46.91,138.36,55.19-58.34,25.41Zm-4.91-46.91-.19,46.89-74.35,31L77,132ZM69.74,193.76l-.54-59.59,141.34,62.36-63.46,27.65Zm77.43,35.93,57.91,22.78-71.39,34.8L71.17,262.81ZM69.41,316.33V267.6l63.41,24.81,76.06,31.44.78,47.76Zm142,3L140,289.86,211.46,255l77.34,33.38ZM356.6,316l-141.84,55.7L214,323.85l82.53-33,5.22-2.4,54.87-25.15Zm-3.67-56.61-57.5,26.36L218,252.3l61.86-25.19Zm3.67-69-76.67,31.22-56.69-25,133.36-58.1Z"/></svg>